PathFileType	4	(X/Y/Z)	paretic_pre_fa151403.trc
DataRate	CameraRate	NumFrames	NumMarkers	Units	OrigDataRate	OrigDataStartFrame	OrigNumFrames
58.68	58.68	16	11	cm	58.68	509	1017
Frame#	Time	NOSE			LEFT_SHOULDER			RIGHT_SHOULDER			LEFT_ELBOW			RIGHT_ELBOW			LEFT_WRIST			RIGHT_WRIST			LEFT_HIP			RIGHT_HIP			LEFT_INDEX			RIGHT_INDEX		
		X1	Y1	Z1	X2	Y2	Z2	X3	Y3	Z3	X4	Y4	Z4	X5	Y5	Z5	X6	Y6	Z6	X7	Y7	Z7	X8	Y8	Z8	X9	Y9	Z9	X10	Y10	Z10	X11	Y11	Z11
538	9.169004369538078	10.156812	-64.731341	-9.937857	11.911198	-49.480747	26.506749	-21.647095	-61.574952	13.430567	21.567750	-21.754243	21.574364	-32.816024	-24.773669	-5.075710	35.010476	-7.040607	9.735955	-40.236936	-9.462968	-28.524746	10.074923	-1.339242	11.226415	-9.648604	0.742607	-10.730783	35.225791	-5.902553	3.684297	-34.547003	-12.462010	-40.092717
539	9.186047128589264	10.177573	-64.725049	-10.556872	11.854798	-49.535848	26.333263	-21.640844	-61.545122	12.728107	21.167630	-21.721940	21.541528	-33.056444	-24.690163	-5.121094	34.793272	-7.045212	9.426497	-40.391731	-9.320641	-28.601862	10.073090	-1.341972	11.228012	-9.646446	0.745871	-10.732800	35.210588	-5.991021	3.378340	-34.624659	-12.367514	-40.157363
540	9.203089887640449	9.932247	-64.672117	-11.115043	11.695325	-49.557359	25.869787	-21.892968	-61.530301	12.488254	21.140914	-21.697657	20.992436	-33.124549	-24.602369	-5.324957	34.738362	-7.021266	8.759897	-40.605925	-9.269360	-28.625858	10.071534	-1.356839	11.208363	-9.644753	0.759983	-10.711970	35.176055	-5.969772	2.730960	-35.074379	-12.364125	-40.192289
541	9.220132646691635	9.893431	-64.233250	-10.428254	11.632680	-48.806050	26.623086	-22.036030	-60.907858	13.163849	21.118558	-20.817334	21.370110	-33.191418	-24.102577	-4.904938	34.598432	-6.414584	8.820668	-40.774498	-8.870178	-28.105632	10.069915	-1.336851	11.179735	-9.643163	0.735707	-10.681668	34.996573	-5.549608	2.793697	-35.374384	-12.043360	-39.665434
542	9.237175405742821	9.942463	-64.830373	-11.023897	11.638851	-49.859635	24.427604	-22.013522	-61.568875	11.317189	21.200751	-21.547777	18.786224	-33.184044	-24.670906	-6.670787	34.604399	-7.051821	6.138554	-40.719620	-8.888849	-29.560119	10.073426	-1.373209	11.167148	-9.646432	0.769804	-10.667761	35.023490	-6.022955	0.293029	-35.285347	-12.019549	-40.861613
543	9.254218164794008	10.156212	-64.821324	-11.318214	11.698825	-49.934789	24.390984	-21.909802	-61.570780	11.201662	21.514984	-21.858824	18.865088	-33.033674	-24.720461	-6.789448	34.902808	-7.300284	6.457276	-40.639934	-9.035223	-29.745158	10.069139	-1.373221	11.167315	-9.642497	0.769859	-10.668699	35.245055	-6.223696	0.598288	-35.078708	-12.176550	-41.151229
544	9.271260923845194	10.185000	-64.807002	-11.540055	11.710449	-49.930365	24.335010	-21.902440	-61.565082	11.134029	21.349141	-21.597571	18.886308	-33.268684	-24.683739	-6.551365	34.910741	-7.234380	6.447822	-40.897047	-8.989810	-29.274295	10.076578	-1.372606	11.159646	-9.649061	0.769418	-10.662255	35.434729	-6.223862	0.564024	-35.323718	-12.117764	-40.762304
545	9.28830368289638	10.221023	-64.803452	-11.251404	11.721681	-49.899968	25.216316	-21.816460	-61.602429	11.613004	21.339706	-21.520971	19.835300	-33.246261	-24.803931	-6.332598	34.934782	-7.194237	7.458449	-40.817808	-9.050813	-29.116400	10.070311	-1.362358	11.158047	-9.642393	0.757385	-10.660822	35.560044	-6.202080	1.519861	-35.187802	-12.126645	-40.626185
546	9.305346441947565	10.229240	-64.747059	-11.388192	11.659949	-49.896771	25.188540	-21.808507	-61.570199	11.588415	21.312161	-21.498502	19.826385	-33.342646	-24.769933	-6.361138	34.908994	-7.145450	7.398946	-40.944801	-8.916712	-29.099485	10.068725	-1.364767	11.151228	-9.639859	0.760161	-10.654192	35.543761	-6.150970	1.461803	-35.289316	-11.850270	-40.598269
547	9.322389200998751	10.237906	-64.632572	-11.507281	11.668343	-49.892506	25.082696	-21.799661	-61.574342	11.512532	21.208170	-21.463072	19.872174	-33.300514	-24.784557	-6.386446	34.856245	-7.119746	7.652826	-40.882535	-8.942085	-29.108567	10.067343	-1.364135	11.136717	-9.638661	0.759519	-10.639603	35.523404	-6.138979	1.775788	-35.197326	-11.897173	-40.607241
548	9.339431960049938	10.152885	-64.637324	-15.126163	11.628924	-50.207499	22.224586	-21.838040	-61.630999	8.908391	21.174199	-21.714012	17.899576	-33.339142	-24.844244	-8.221121	34.786587	-7.283963	6.156559	-40.827572	-8.966785	-30.108774	10.060886	-1.420097	11.135082	-9.632510	0.821213	-10.638150	35.419111	-6.232787	0.387133	-35.114459	-11.921083	-41.493098
549	9.356474719101124	10.148152	-64.633389	-14.592571	11.602112	-50.178296	22.470335	-21.847942	-61.574155	9.269862	21.204798	-21.695882	18.213113	-33.463981	-24.761832	-7.728459	34.836781	-7.167497	6.541714	-40.911743	-8.924751	-29.749146	10.059384	-1.419019	11.129014	-9.630920	0.819836	-10.632458	35.469919	-6.119603	0.822169	-35.184707	-11.920144	-41.150347
550	9.37351747815231	10.186024	-64.386628	-12.424221	11.750126	-49.688186	25.253466	-21.785234	-61.474664	11.925501	21.187719	-20.937762	20.389408	-33.175886	-24.637909	-5.787117	34.889047	-6.976140	8.244732	-40.817905	-8.931314	-28.396957	10.059460	-1.389819	11.117919	-9.631006	0.788359	-10.622069	35.739568	-6.098826	2.344080	-35.130434	-11.954410	-40.012795
551	9.390560237203495	10.186113	-64.389853	-13.727232	11.753123	-49.685717	24.245299	-21.716561	-61.425631	10.753920	21.417065	-21.149060	20.118945	-33.182507	-24.643792	-6.658903	35.058254	-6.942353	8.232066	-40.780363	-8.926090	-28.506199	10.032903	-1.392423	11.120501	-9.601460	0.791741	-10.624593	35.814429	-5.858440	2.408924	-35.081637	-11.919444	-40.035426
552	9.407602996254681	10.455870	-64.415218	-13.735609	11.974683	-49.741504	24.228488	-21.384045	-61.482978	10.715541	21.407020	-21.153672	20.129004	-32.895127	-24.808533	-6.687229	35.390521	-6.944634	8.706736	-40.591595	-9.154387	-28.538981	10.030987	-1.391481	11.114867	-9.599372	0.790937	-10.620150	36.687532	-5.861907	2.982149	-34.966971	-12.141576	-40.043546
553	9.424645755305868	10.456476	-64.413919	-15.692245	12.047695	-49.777044	22.011948	-21.376667	-61.472983	8.925657	21.491796	-21.220667	17.382284	-32.927396	-24.791096	-7.764964	35.349112	-7.098097	4.580485	-40.579857	-9.163704	-29.125511	10.030516	-1.404828	11.116574	-9.598800	0.808176	-10.621888	36.356674	-6.061323	-1.362266	-34.887175	-12.168135	-40.525922
